<?xml version="1.0" standalone="no"?>
<!DOCTYPE svg PUBLIC "-//W3C//DTD SVG 20010904//EN"
 "http://www.w3.org/TR/2001/REC-SVG-20010904/DTD/svg10.dtd">
<svg version="1.0" xmlns="http://www.w3.org/2000/svg"
 width="851.000000pt" height="851.000000pt" viewBox="0 0 851.000000 851.000000"
 preserveAspectRatio="xMidYMid meet">
<metadata>
Created by potrace 1.14, written by Peter Selinger 2001-2017
</metadata>
<g transform="translate(0.000000,851.000000) scale(0.100000,-0.100000)"
fill="#000000" stroke="none">
<path d="M70 4255 l0 -4085 4190 0 4190 0 0 4085 0 4085 -4190 0 -4190 0 0
-4085z m8370 0 l0 -4075 -4180 0 -4180 0 0 4075 0 4075 4180 0 4180 0 0 -4075z"/>
<path d="M3105 7765 c-137 -49 -129 -246 12 -284 l39 -11 112 -521 111 -521
-34 -32 c-42 -40 -59 -97 -44 -151 13 -48 58 -93 99 -102 18 -3 34 -11 36 -18
3 -7 65 -333 138 -726 l133 -714 -26 -13 c-26 -13 -34 -9 -207 108 l-179 121
-1 53 c-1 95 -62 159 -149 159 -83 0 -148 -65 -148 -148 0 -113 112 -180 220
-131 l40 18 185 -124 185 -123 -9 -32 c-5 -21 -4 -45 5 -71 l13 -38 -465 -473
-466 -473 -40 11 c-52 14 -109 -1 -146 -38 -28 -28 -53 -98 -44 -122 3 -10
-106 -62 -382 -181 l-386 -167 -25 19 c-100 79 -240 15 -246 -113 l-2 -40
-255 -139 -254 -139 -39 22 c-106 59 -229 -9 -229 -126 0 -83 65 -148 148
-148 86 0 149 66 148 153 l-1 46 252 138 c196 108 254 135 266 127 42 -30 79
-44 116 -44 82 0 147 65 147 148 l0 43 351 153 c193 83 365 158 381 165 27 11
33 10 63 -15 l32 -28 -95 -452 c-52 -248 -97 -456 -99 -460 -3 -5 -19 -11 -36
-15 -42 -8 -86 -54 -99 -102 -30 -111 72 -213 183 -183 79 21 127 104 105 184
-11 38 -51 87 -78 96 -12 4 3 89 80 459 l94 454 50 18 c88 31 129 107 101 189
l-15 43 154 160 c85 89 293 302 462 474 l308 312 43 -15 c35 -12 52 -13 84 -4
38 10 89 49 99 76 3 8 185 -31 570 -121 311 -73 578 -136 592 -140 20 -5 29
-16 37 -48 7 -22 24 -54 39 -69 30 -29 92 -51 125 -44 19 5 65 -75 394 -669
l372 -674 -21 -37 c-44 -74 -20 -170 53 -210 l36 -19 6 -191 c3 -104 8 -323
11 -485 l6 -295 -38 -20 c-134 -72 -81 -278 72 -278 154 0 206 211 69 278
l-42 20 -6 170 c-3 94 -8 312 -11 485 l-6 316 26 9 c25 10 38 -2 273 -240 136
-138 295 -300 354 -360 l107 -110 -14 -43 c-39 -110 65 -223 175 -192 19 6 38
10 41 10 5 0 425 -478 466 -530 9 -13 9 -25 -3 -59 -50 -147 137 -262 247
-152 105 105 0 291 -141 251 -19 -6 -38 -10 -42 -10 -6 0 -457 513 -471 536
-3 6 1 29 9 53 39 113 -70 226 -182 189 l-38 -13 -266 270 c-146 149 -304 311
-352 360 l-87 90 15 43 c35 102 -35 194 -149 196 l-48 1 -370 668 -370 668 20
26 c12 14 26 43 31 64 10 36 7 52 -23 130 -1 3 149 174 333 380 184 205 342
381 350 391 14 17 18 17 58 3 136 -48 254 113 169 229 -13 18 5 44 211 305
123 157 232 294 241 303 13 15 23 16 51 8 106 -30 209 76 179 185 -40 144
-248 144 -288 -1 -9 -31 -8 -49 5 -90 l16 -52 -238 -302 c-236 -298 -239 -302
-271 -297 -110 18 -205 -88 -170 -190 l13 -39 -353 -395 c-194 -217 -356 -395
-361 -396 -4 -2 -13 1 -21 6 -12 8 -9 69 18 413 18 221 35 406 37 409 2 4 17
9 34 13 42 8 86 54 99 102 30 111 -73 213 -184 183 -79 -22 -126 -105 -104
-184 11 -38 51 -87 79 -97 13 -4 11 -52 -14 -359 -42 -529 -35 -476 -64 -484
-14 -3 -41 -22 -59 -41 l-33 -35 -590 137 -590 138 -11 40 c-14 50 -55 91
-106 105 l-39 11 -82 437 c-196 1053 -188 1006 -172 1011 29 10 68 59 79 98
22 82 -27 163 -110 184 l-44 11 -111 522 -111 522 28 17 c37 23 62 73 62 124
0 103 -101 174 -198 139z"/>
</g>
</svg>
